<svg xmlns="http://www.w3.org/2000/svg" width="200" height="200" style="width:100%;height:100%;transform:translate3d(0,0,0);content-visibility:visible" viewBox="0 0 430 430"><defs><clipPath id="e"><path d="M0 0h430v430H0z"/></clipPath><clipPath id="f"><path d="M0 0h430v430H0z"/></clipPath><filter id="a" width="100%" height="100%" x="0%" y="0%" filterUnits="objectBoundingBox"><feComponentTransfer in="SourceGraphic"><feFuncA tableValues="1.0 0.0" type="table"/></feComponentTransfer></filter><filter id="c" width="100%" height="100%" x="0%" y="0%" filterUnits="objectBoundingBox"><feComponentTransfer in="SourceGraphic"><feFuncA tableValues="1.0 0.0" type="table"/></feComponentTransfer></filter><mask id="h" mask-type="alpha"><g filter="url(#a)"><path fill="#fff" d="M0 0h430v430H0z" opacity="0"/><use xmlns:ns1="http://www.w3.org/1999/xlink" ns1:href="#b"/></g></mask><mask id="g" mask-type="alpha"><g filter="url(#c)"><path fill="#fff" d="M0 0h430v430H0z" opacity="0"/><use xmlns:ns2="http://www.w3.org/1999/xlink" ns2:href="#d"/></g></mask><path id="b" fill="red" d="M-1.94-157h3.88c33.734 0 60.747 27.969 59.574 61.682l-1.94 55.781C58.458-7.442 32.115 18 0 18c-32.115 0-58.458-25.442-59.574-57.537l-1.94-55.781C-62.687-129.031-35.674-157-1.94-157z" style="display:block" transform="translate(215 215)"/><g id="d" style="display:block"><path fill="red" d="M248.88 241.69h7.62c45.84 0 83 37.16 83 83v27.76c0 7.62-5.71 14.03-13.28 14.9l-29.04 3.36a85.26 85.26 0 0 0-23.07 6.03c-18.91 7.91-39 11.88-59.11 11.92h-.3c-20.1 0-40.2-3.93-59.12-11.8l-.2-.08c-7.69-3.2-15.79-5.3-24.07-6.26l-27.53-3.17c-7.57-.87-13.28-7.28-13.28-14.9v-27.76c0-45.84 37.16-83 83-83h7.63"/><path fill-opacity="0" stroke="#121331" stroke-linecap="round" stroke-linejoin="round" stroke-width="12.04" d="M248.88 241.69h7.62c45.84 0 83 37.16 83 83v27.76c0 7.62-5.71 14.03-13.28 14.9l-29.04 3.36a85.26 85.26 0 0 0-23.07 6.03c-18.91 7.91-39 11.88-59.11 11.92h-.3c-20.1 0-40.2-3.93-59.12-11.8l-.2-.08c-7.69-3.2-15.79-5.3-24.07-6.26l-27.53-3.17c-7.57-.87-13.28-7.28-13.28-14.9v-27.76c0-45.84 37.16-83 83-83h7.63" class="primary"/></g></defs><g clip-path="url(#e)"><g clip-path="url(#f)" style="display:block"><g mask="url(#g)" style="display:block"><path fill="none" stroke="#08A88A" stroke-linecap="round" stroke-linejoin="round" stroke-width="12.04" d="M127.36 255.68c-.13-38.79.51-99.33 5.36-124.59C140.99 88.03 161.627 47 215.056 47c53.317 0 74.064 41.03 82.334 84.09 4.86 25.28 5.5 85.88 5.36 124.67" class="secondary"/></g><path fill="none" stroke="#121331" stroke-linecap="round" stroke-linejoin="round" stroke-width="12.04" d="M50.846-73.478 16.966 73.496m-33.902-146.98L16.936 73.484" class="primary" style="display:block" transform="translate(198.064 315.176)"/><path fill="none" stroke="#08A88A" stroke-linecap="round" stroke-linejoin="round" stroke-width="12.04" d="M0 19.37v-38.74" class="secondary" style="display:block" transform="translate(289.06 267.69)"/><path fill="none" stroke="#08A88A" stroke-linecap="round" stroke-linejoin="round" stroke-width="12.04" d="M-15.47 0c0 8.544 6.926 15.47 15.47 15.47S15.47 8.544 15.47 0 8.544-15.47 0-15.47-15.47-8.544-15.47 0z" class="secondary" style="display:block" transform="translate(289.06 302.529)"/><path fill="none" stroke="#08A88A" stroke-linecap="round" stroke-linejoin="round" stroke-width="12.04" d="M0 25.845v-51.69" class="secondary" style="display:block" transform="translate(141 274.135)"/><path fill="none" stroke="#08A88A" stroke-linecap="round" stroke-linejoin="round" stroke-width="12.04" d="m157.908 341.333.068-27.35c0-7.704-7.639-14.006-16.976-14.006s-16.976 6.302-16.976 14.006l.068 27.35m33.816.001h-4.648m-24.588 0h-4.648" class="secondary" style="display:block"/><g mask="url(#h)" style="display:block"><path fill="none" stroke="#121331" stroke-linecap="round" stroke-linejoin="round" stroke-width="12.04" d="M248.87 221.345v18.94c0 18.63-33.88 38.87-33.88 38.87s-33.87-20.24-33.87-38.87v-18.93" class="primary"/></g><path fill="none" stroke="#121331" stroke-linecap="round" stroke-linejoin="round" stroke-width="12.04" d="M33.88 26.69h7.62c45.84 0 83 37.16 83 83v27.76c0 7.62-5.71 14.03-13.28 14.9l-29.04 3.36a85.26 85.26 0 0 0-23.07 6.03c-18.91 7.91-39 11.88-59.11 11.92h-.3c-20.1 0-40.2-3.93-59.12-11.8l-.2-.08c-7.69-3.2-15.79-5.3-24.07-6.26l-27.53-3.17c-7.57-.87-13.28-7.28-13.28-14.9v-27.76c0-45.84 37.16-83 83-83h7.63m94.774-98.271-1.33 32.044C58.458-7.442 32.115 18 0 18c0 0 0 0 0 0-32.115 0-58.458-25.442-59.574-57.537l-1.07-33.812" class="primary" style="display:block" transform="translate(215 215)"/><path fill="none" stroke="#08A88A" stroke-linecap="round" stroke-linejoin="round" stroke-width="12.04" d="M-82.175 29.505c5.46-.35 72.29-10.651 108.17-59.01 22.25 15.85 36.703 56.064 36.703 56.064 9.258-2.945 16.67-12.513 19.477-21.814" class="secondary" style="display:block" transform="translate(212.885 116.145)"/></g></g></svg>